<?xml version="1.0" encoding="UTF-8"?>
<svg width="275px" height="275px" viewBox="0 0 275 275" version="1.1" xmlns="http://www.w3.org/2000/svg" xmlns:xlink="http://www.w3.org/1999/xlink">
    <!-- Generator: Sketch 58 (84663) - https://sketch.com -->
    <title>Group</title>
    <desc>Created with Sketch.</desc>
    <g id="Welcome" stroke="none" stroke-width="1" fill="none" fill-rule="evenodd">
        <g id="Mobile-Portrait" transform="translate(-309.000000, -135.000000)" stroke="#979797">
            <g id="Group" transform="translate(309.000000, 135.000000)">
                <rect id="Rectangle" fill="#5F4B8B" x="0.5" y="0.5" width="274" height="274" rx="20"></rect>
                <path d="M131,68 L131,208 L116,208 L116,153.6 L84.2,153.6 L49,208 L31,208 L68.6,150.6 C49.2,145.8 35.4,132.4 35.4,110.2 L35.4,109.8 C35.4,98.2034483 39.263258,88.3453627 46.0406115,81.3647382 L46.4,81 C54.4,72.8 67.2,68 83.2,68 L131,68 Z M144.6,68 L192.4,68 C208.168116,68 220.828313,72.6618778 228.849154,80.6456249 L229.2,81 C236.07931,87.8793103 240.061177,97.6560642 240.196438,109.191267 L240.2,109.8 L240.2,110.2 C240.2,132.178 226.67462,145.53112 207.580312,150.45342 L207,150.6 L244.6,208 L226.6,208 L191.4,153.6 L159.6,153.6 L159.6,208 L144.6,208 L144.6,68 L192.4,68 L144.6,68 Z M116,81.8 L84.2,81.8 C63.41,81.8 50.65682,91.79702 50.4038354,109.850462 L50.4,110.8 C50.4,128.6 63,140 85.8,140 L116,140 L116,81.8 Z M191.4,81.8 L159.6,81.8 L159.6,140 L189.8,140 C212.372,140 224.94698,128.82686 225.196222,111.332075 L225.2,110.8 L225.2,110.4 C225.2,92.184 212.65472,82.00482 192.027535,81.803058 L191.4,81.8 Z" id="Shape" fill="#FFFFFF"></path>
            </g>
        </g>
    </g>
</svg>