<?xml version="1.0" encoding="UTF-8"?>
<svg width="152px" height="167px" viewBox="0 0 152 167" version="1.1" xmlns="http://www.w3.org/2000/svg" xmlns:xlink="http://www.w3.org/1999/xlink">
    <!-- Generator: Sketch 58 (84663) - https://sketch.com -->
    <title>Avataaar/Circle</title>
    <desc>Created with Sketch.</desc>
    <defs>
        <ellipse id="path-1" cx="71.8181818" cy="72" rx="71.8181818" ry="72"></ellipse>
        <path d="M-3.19744231e-14,96 L-3.19744231e-14,-1.42108547e-14 L158,-1.42108547e-14 L158,96 L150.818182,96 C150.818182,135.764502 118.664087,168 79,168 C39.3359134,168 7.18181818,135.764502 7.18181818,96 L7.18181818,96 L-3.19744231e-14,96 Z" id="path-3"></path>
        <path d="M59.8484848,0 C78.3583919,-3.40021477e-15 93.3636364,15.0052444 93.3636364,33.5151515 L93.3638287,37.299331 C96.7603909,37.8692613 99.3484848,40.8232989 99.3484848,44.3818182 L99.3484848,52.8181818 C99.3484848,56.4375254 96.6711604,59.4315463 93.188961,59.9277952 C91.9760353,71.8145431 84.5509804,81.8631008 74.2125458,86.774534 L74.2125935,97.898259 C99.3376025,99.4878818 119.278186,120.168527 119.690459,145.59631 L119.69697,146.4 L0,146.4 C-3.15890798e-15,120.605559 20.0951736,99.504597 45.4843762,97.898259 L45.4844239,86.774534 C35.1459893,81.8631008 27.7209344,71.8145431 26.5079994,59.9276008 C23.0258093,59.4315463 20.3484848,56.4375254 20.3484848,52.8181818 L20.3484848,44.3818182 C20.3484848,40.8232989 22.9365788,37.8692613 26.333141,37.299331 L26.3333333,33.5151515 C26.3333333,15.0052444 41.3385778,3.40021477e-15 59.8484848,0 Z" id="path-5"></path>
        <path d="M49.6742424,21.8085751 C49.6742424,31.5773974 62.9378067,39.4965927 79.2992424,39.4965927 C95.6606781,39.4965927 108.924242,31.5773974 108.924242,21.8085751 C108.924242,21.5815342 108.917078,21.3554924 108.902877,21.1305258 C126.251488,28.3381017 138.519633,45.3155102 138.841978,65.1968233 L138.848485,66 L19.1515152,66 C19.1515152,45.5378482 31.8052733,28.0311401 49.7145966,20.8780686 C49.6877422,21.1871459 49.6742424,21.4969192 49.6742424,21.8085751 Z" id="path-7"></path>
        <path d="M112.515152,21.0461538 C112.515152,21.6192051 112.478626,22.1819098 112.407265,22.7339802 C127.882698,30.6752589 138.541707,46.6767285 138.841974,65.196305 L138.848485,66 L19.1515152,66 C19.1515152,47.1404554 29.8938616,30.7899203 45.5935325,22.7334166 C45.5213736,22.1819098 45.4848485,21.6192051 45.4848485,21.0461538 C45.4848485,12.3982391 53.8030132,9.05793573 64.6355955,7.84261754 L64.6363636,19.2363636 C64.6363636,27.169181 71.0671827,33.6 79,33.6 C86.9328173,33.6 93.3636364,27.169181 93.3636364,19.2363636 L93.3636364,19.2363636 L93.3642414,7.84259924 C104.196903,9.0579022 112.515152,12.3981957 112.515152,21.0461538 Z" id="path-9"></path>
        <path d="M21.1357394,8.93931833 C21.7724193,14.5480651 26.6174923,18.9090909 32.5,18.9090909 C38.4006792,18.9090909 43.2575045,14.5210803 43.8700403,8.887305 C43.9193375,8.43389536 43.4035953,7.68181818 42.7572209,7.68181818 C33.7932314,7.68181818 26.9256008,7.68181818 22.3207739,7.68181818 C21.670649,7.68181818 21.0720405,8.37817119 21.1357394,8.93931833 Z" id="path-11"></path>
        <rect id="path-13" x="0" y="0" width="158" height="168"></rect>
        <path d="M68.7684993,6.91290292 C73.9394348,4.60846993 81.6032878,6.70907633 87.2706767,12 C93.3254385,17.9822303 98.086016,31.6131535 94.2788976,42.1021698 C94.7064584,44.2581501 94.9310553,46.4865845 94.9310553,48.7656 L94.9322848,55.7199174 C94.4078952,52.7433906 92.0481444,50.3996414 89.0634635,49.899101 L89.0639098,49.8 C85.4554435,36.8771213 74.8529334,30.9467397 68.3975942,25.0643506 C58.4047512,36.2905557 27.4209971,36.4410501 16.4649273,58.1359506 L16.1390977,58.8 L16.1390977,64.8270677 C16.1390977,68.4211142 18.7823976,71.3977849 22.2309907,71.9190732 C23.2346909,84.0718114 30.7313391,94.3844504 41.2441651,99.3786331 L41.2443609,99.6 L41.2443609,99.6 C42.9959738,125.913067 37.274419,158.878459 0,148.8 C8.35517982,143.891991 12.6705614,111.740801 12.5526316,93 C12.5535668,92.7511214 12.5526316,92.5014519 12.5526316,92.2517511 L12.5526316,53.8285238 C12.5526316,51.5249088 12.7499969,49.267391 13.1287403,47.0719574 C10.8897206,29.4869726 19.5414946,15.5040306 29.887218,7.8 C41.7849712,-1.05566934 61.8313787,-3.61091126 68.7684993,6.91290292 Z M95.0406637,62.0112548 C95.7042952,76.1737296 99.3732477,90.0523151 105.824461,102.717633 L114.711768,120.1656 C119.08812,128.757455 118.370373,138.60488 113.677483,146.265615 C108.348534,126.58232 90.9631062,111.856617 69.9369581,110.501878 L69.9370563,99.3782672 C80.4494782,94.3839467 87.9457848,84.0715146 88.9491717,71.9177754 C92.3199646,71.4100752 94.9220141,68.5541345 95.0373617,65.0686504 L95.0413534,64.8270677 L95.0406637,62.0112548 Z" id="path-15"></path>
    </defs>
    <g id="Welcome" stroke="none" stroke-width="1" fill="none" fill-rule="evenodd">
        <g id="Desktop" transform="translate(-436.000000, -563.000000)">
            <g id="Avataaar/Circle" transform="translate(433.000000, 556.000000)">
                <g id="Circle" stroke-width="1" fill-rule="evenodd" transform="translate(7.181818, 24.000000)">
                    <mask id="mask-2" fill="white">
                        <use xlink:href="#path-1"></use>
                    </mask>
                    <use id="Circle-Background" fill="#E6E6E6" xlink:href="#path-1"></use>
                    <g id="Color/Palette/White" mask="url(#mask-2)" fill="#5F4B8B">
                        <rect id="ðŸ–Color" x="0" y="0" width="144" height="144"></rect>
                    </g>
                </g>
                <mask id="mask-4" fill="white">
                    <use xlink:href="#path-3"></use>
                </mask>
                <g id="Mask"></g>
                <g id="Avataaar" stroke-width="1" fill-rule="evenodd" mask="url(#mask-4)">
                    <g id="Body" transform="translate(19.151515, 21.600000)">
                        <mask id="mask-6" fill="white">
                            <use xlink:href="#path-5"></use>
                        </mask>
                        <use fill="#D0C6AC" xlink:href="#path-5"></use>
                        <g id="Skin/ðŸ‘¶ðŸ½-03-Brown" mask="url(#mask-6)" fill="#D08B5B">
                            <g transform="translate(-19.151515, 0.000000)" id="Color">
                                <rect x="0" y="0" width="158" height="146"></rect>
                            </g>
                        </g>
                        <path d="M26.3333333,56.4848485 C26.3333333,74.9947556 41.3385778,90 59.8484848,90 C78.3583919,90 93.3636364,74.9947556 93.3636364,56.4848485 L93.3636364,56.4848485 L93.3636364,61.2848485 C93.3636364,79.7947556 78.3583919,94.8 59.8484848,94.8 C41.3385778,94.8 26.3333333,79.7947556 26.3333333,61.2848485 Z" id="Neck-Shadow" fill-opacity="0.100000001" fill="#000000" mask="url(#mask-6)"></path>
                    </g>
                    <g id="Clothing/Shirt-Scoop-Neck" transform="translate(0.000000, 102.000000)">
                        <mask id="mask-8" fill="white">
                            <use xlink:href="#path-7"></use>
                        </mask>
                        <use id="Clothes" fill="#E6E6E6" fill-rule="evenodd" xlink:href="#path-7"></use>
                        <g id="Clothing/Hoodie" mask="url(#mask-8)">
                            <mask id="mask-10" fill="white">
                                <use xlink:href="#path-9"></use>
                            </mask>
                            <use id="Hoodie" fill="#B7C1DB" fill-rule="evenodd" xlink:href="#path-9"></use>
                            <g id="Color/Palette/Gray-02" mask="url(#mask-10)" fill="#929598" fill-rule="evenodd">
                                <rect id="ðŸ–Color" x="0" y="0" width="158" height="66"></rect>
                            </g>
                            <path d="M61.0454104,37.0434124 L61.0454545,66 L56.8560606,66 L56.8553442,34.8897306 C58.1744531,35.6757658 59.5769393,36.3963411 61.0454104,37.0434124 Z M101.144108,34.8900572 L101.143939,59.105303 C101.143939,60.2621722 100.206112,61.2 99.0492424,61.2 C97.8923732,61.2 96.9545455,60.2621722 96.9545455,59.105303 L96.9549495,37.0432539 C98.4230865,36.396313 99.8252662,35.6759012 101.144108,34.8900572 Z" id="Straps" fill="#F4F4F4" fill-rule="evenodd" mask="url(#mask-10)"></path>
                            <path d="M79,40.8 L78.399295,40.797131 C58.5798351,40.6080162 39.2007576,31.0937318 39.2007576,19.3846154 C39.2007576,12.7456049 45.430808,9.34257779 54.438774,7.63451501 C49.0011692,9.64450805 45.4848485,13.0234931 45.4848485,18.6461538 C45.4848485,30.8813852 62.135418,40.8 79,40.8 Z M79,40.8 C95.864582,40.8 112.515152,30.8813852 112.515152,18.6461538 C112.515152,13.0238565 108.999285,9.64494477 103.562388,7.63485217 C112.569711,9.3428615 118.799242,12.7458816 118.799242,19.3846154 C118.799242,31.2120057 99.0266911,40.8 79,40.8 L79,40.8 Z" id="Shadow" fill-opacity="0.16" fill="#000000" fill-rule="evenodd" mask="url(#mask-10)"></path>
                        </g>
                    </g>
                    <g id="Face" transform="translate(45.484848, 49.200000)">
                        <g id="Mouth/Smile" transform="translate(1.196970, 31.200000)">
                            <mask id="mask-12" fill="white">
                                <use xlink:href="#path-11"></use>
                            </mask>
                            <use id="Mouth" fill-opacity="0.699999988" fill="#000000" fill-rule="evenodd" xlink:href="#path-11"></use>
                            <path d="M28.1994949,1.18181818 L37.4023569,1.18181818 C40.0131575,1.18181818 42.1296296,3.29829027 42.1296296,5.90909091 C42.1296296,8.51989154 40.0131575,10.6363636 37.4023569,10.6363636 L28.1994949,10.6363636 C25.5886943,10.6363636 23.4722222,8.51989154 23.4722222,5.90909091 C23.4722222,3.29829027 25.5886943,1.18181818 28.1994949,1.18181818 Z" id="Teeth" fill="#FFFFFF" fill-rule="evenodd" mask="url(#mask-12)"></path>
                            <g id="Tongue" stroke-width="1" fill-rule="evenodd" mask="url(#mask-12)" fill="#FF4F6D">
                                <g transform="translate(22.870370, 14.181818)">
                                    <ellipse cx="6.62037037" cy="6.5" rx="6.62037037" ry="6.5"></ellipse>
                                    <ellipse cx="12.6388889" cy="6.5" rx="6.62037037" ry="6.5"></ellipse>
                                </g>
                            </g>
                        </g>
                        <g id="Nose/Default" transform="translate(16.757576, 24.000000)" fill="#000000" fill-opacity="0.16">
                            <path d="M9.71428571,4.66666667 C9.71428571,7.2439955 12.9762111,9.33333333 17,9.33333333 L17,9.33333333 C21.0237889,9.33333333 24.2857143,7.2439955 24.2857143,4.66666667" id="Nose"></path>
                        </g>
                        <g id="Eyes/Default-ðŸ˜€" transform="translate(0.000000, 4.800000)" fill="#000000" fill-opacity="0.599999964">
                            <ellipse id="Eye" cx="17.9464286" cy="13" rx="3.58928571" ry="3.54545455"></ellipse>
                            <ellipse id="Eye" cx="49.0535714" cy="13" rx="3.58928571" ry="3.54545455"></ellipse>
                        </g>
                        <g id="Eyebrow/Outline/Default" fill="#000000" fill-opacity="0.7">
                            <g id="I-Browse" transform="translate(7.178571, 3.500000)">
                                <path d="M2.17166464,6.50916977 C4.51361951,3.29575559 10.9341127,1.49382171 16.4646678,2.8181886 C17.1063711,2.97185321 17.7543219,2.58916008 17.9119066,1.96341957 C18.0694912,1.33767906 17.6770355,0.705846376 17.0353322,0.55218177 C10.6125388,-0.98584377 3.17777388,1.10074902 0.221192507,5.1574969 C-0.161583437,5.6827067 -0.0352565914,6.41105564 0.503351414,6.78430979 C1.04195942,7.15756395 1.78888869,7.03437956 2.17166464,6.50916977 Z" id="Eyebrow"></path>
                                <path d="M36.8680932,6.50916977 C39.2100481,3.29575559 45.6305413,1.49382171 51.1610964,2.8181886 C51.8027996,2.97185321 52.4507505,2.58916008 52.6083351,1.96341957 C52.7659198,1.33767906 52.373464,0.705846376 51.7317608,0.55218177 C45.3089673,-0.98584377 37.8742025,1.10074902 34.9176211,5.1574969 C34.5348451,5.6827067 34.661172,6.41105564 35.19978,6.78430979 C35.738388,7.15756395 36.4853173,7.03437956 36.8680932,6.50916977 Z" id="Eyebrow" transform="translate(43.669735, 3.522866) scale(-1, 1) translate(-43.669735, -3.522866) "></path>
                            </g>
                        </g>
                    </g>
                    <g id="Top">
                        <mask id="mask-14" fill="white">
                            <use xlink:href="#path-13"></use>
                        </mask>
                        <g id="Mask"></g>
                        <g id="Top/Long-Hair/Straight" mask="url(#mask-14)">
                            <g transform="translate(-0.598485, 0.000000)">
                                <g id="Hair" stroke-width="1" fill="none" fill-rule="evenodd" transform="translate(23.909774, 9.000000)">
                                    <mask id="mask-16" fill="white">
                                        <use xlink:href="#path-15"></use>
                                    </mask>
                                    <use fill="#272C2E" xlink:href="#path-15"></use>
                                    <g id="Color/Hair/Black" mask="url(#mask-16)" fill="#2C1B18">
                                        <g transform="translate(-23.312030, -9.000000)" id="Color">
                                            <rect x="0" y="0" width="158" height="168"></rect>
                                        </g>
                                    </g>
                                </g>
                                <path d="M112.785324,58.1525104 L112.943872,58.7002678 L112.779136,58.2110265 C108.998121,47.4383588 98.6527333,43.5405812 92.3094727,38.5250188 C82.2109838,48.3641489 50.7022552,48.3988004 40.0488722,67.8 C50.7026413,45.4430738 82.2132678,45.4039521 92.3105707,34.065035 C98.6539081,39.8475966 109.009002,45.6772309 112.785324,58.1525104 Z M112.943872,58.7002678 L112.951523,58.7210612 L112.973684,58.8 L112.973684,58.8 L112.943872,58.7002678 Z" id="Shadow" fill-opacity="0.16" fill="#000000" fill-rule="evenodd"></path>
                                <g id="Facial-Hair/-Blank" fill="none" transform="translate(29.289474, 43.200000)"></g>
                                <g id="Top/_Resources/Blank" fill="none" transform="translate(37.060150, 51.000000)"></g>
                            </g>
                        </g>
                    </g>
                </g>
            </g>
        </g>
    </g>
</svg>