<svg fill="#5f4b8b" xmlns="http://www.w3.org/2000/svg" viewBox="0 0 24 24" width="24px" height="24px"><path d="M 12 1.8828125 L 1.7636719 7 L 3.5527344 7.8945312 L 6.7636719 9.5 L 1.7636719 12 L 6.7636719 14.5 L 1.7636719 17 L 12 22.117188 L 22.236328 17 L 17.236328 14.5 L 22.236328 12 L 17.236328 9.5 L 22.236328 7 L 12 1.8828125 z M 12 4.1171875 L 17.763672 7 L 12 9.8828125 L 6.2363281 7 L 12 4.1171875 z M 9 10.617188 L 12 12.117188 L 15 10.617188 L 17.763672 12 L 12 14.882812 L 6.2363281 12 L 9 10.617188 z M 9 15.617188 L 12 17.117188 L 15 15.617188 L 17.763672 17 L 12 19.882812 L 6.2363281 17 L 9 15.617188 z"/></svg>