<?xml version="1.0" encoding="UTF-8"?>
<svg width="82px" height="56px" viewBox="0 0 82 56" version="1.1" xmlns="http://www.w3.org/2000/svg" xmlns:xlink="http://www.w3.org/1999/xlink">
    <!-- Generator: Sketch 58 (84663) - https://sketch.com -->
    <title>Shape</title>
    <desc>Created with Sketch.</desc>
    <g id="Welcome" stroke="none" stroke-width="1" fill="none" fill-rule="evenodd">
        <g id="About" transform="translate(-77.000000, -30.000000)" fill="#FFFFFF">
            <path d="M115.278481,30 L115.278481,86 L109.536709,86 L109.536709,64.24 L97.3641519,64.24 L83.8901266,86 L77,86 L91.3927089,63.04 C83.9666835,61.12 78.6842532,55.76 78.6842532,46.88 L78.6842532,46.72 C78.6842532,42.0813793 80.1630497,38.1381451 82.7573176,35.3458953 L82.8948861,35.2 C85.9571646,31.92 90.8568101,30 96.9813671,30 L115.278481,30 Z M120.240506,30 L138.53762,30 C144.573416,30 149.419547,31.8647511 152.489803,35.05825 L152.624101,35.2 C155.257397,37.9517241 156.781595,41.8624257 156.833371,46.4765066 L156.834734,46.72 L156.834734,46.88 C156.834734,55.6712 151.657424,61.012448 144.348413,62.9813679 L144.126278,63.04 L158.518987,86 L151.628861,86 L138.154835,64.24 L125.982278,64.24 L125.982278,86 L120.240506,86 L120.240506,30 L138.53762,30 L120.240506,30 Z M109.607595,35.6708861 L97.5807348,35.6708861 C89.7178913,35.6708861 84.8945985,39.6890019 84.7989189,46.9452464 L84.7974684,47.3268955 C84.7974684,54.4812737 89.562828,59.0632911 98.1858598,59.0632911 L109.607595,59.0632911 L109.607595,35.6708861 Z M137.938253,35.6708861 L125.911392,35.6708861 L125.911392,59.0632911 L137.333128,59.0632911 C145.869929,59.0632911 150.625826,54.5724558 150.72009,47.5407531 L150.721519,47.3268955 L150.721519,47.1661229 C150.721519,39.8445413 145.976855,35.7532097 138.175588,35.6721152 L137.938253,35.6708861 Z" id="Shape"></path>
        </g>
    </g>
</svg>