<?xml version="1.0" encoding="UTF-8"?>
<svg width="27px" height="36px" viewBox="0 0 27 36" version="1.1" xmlns="http://www.w3.org/2000/svg" xmlns:xlink="http://www.w3.org/1999/xlink">
    <!-- Generator: Sketch 58 (84663) - https://sketch.com -->
    <title>icons8-spider-man-head (1)</title>
    <desc>Created with Sketch.</desc>
    <g id="Welcome" stroke="none" stroke-width="1" fill="none" fill-rule="evenodd">
        <g id="About" transform="translate(-1130.000000, -726.000000)" fill-rule="nonzero">
            <g id="icons8-spider-man-head-(1)" transform="translate(1130.000000, 726.000000)">
                <path d="M13.7142857,0 C6.6,0 0.857142857,4.2 0.857142857,14.1428571 C0.857142857,24.0857143 6.6,36 13.7142857,36 C20.8285714,36 26.5714286,24.0857143 26.5714286,14.1428571 C26.5714286,4.2 20.8285714,0 13.7142857,0 Z" id="Path" fill="#FF3D00"></path>
                <path d="M24,7.71428571 C24,7.71428571 23.4857143,13.8857143 14.4,18.8571429 C14.9142857,24.0857143 20.8285714,26.2285714 20.8285714,26.2285714 L21.7714286,25.2857143 C31.0285714,16.1142857 24,7.71428571 24,7.71428571 Z M5.57142857,25.2 L6.51428571,26.1428571 C6.51428571,26.1428571 12.4285714,24.0857143 12.9428571,18.7714286 C3.94285714,13.8857143 3.42857143,7.71428571 3.42857143,7.71428571 C3.42857143,7.71428571 -3.6,16.1142857 5.57142857,25.2 Z" id="Shape" fill="#37474F"></path>
                <path d="M14.6571429,19.3714286 L22.2857143,2.91428571 C21.8571429,2.57142857 21.3428571,2.14285714 20.9142857,1.88571429 L13.7142857,17.3142857 L6.51428571,1.88571429 C6,2.22857143 5.57142857,2.57142857 5.14285714,2.91428571 L12.7714286,19.3714286 L6.85714286,32.1428571 C7.28571429,32.6571429 7.71428571,33.0857143 8.14285714,33.5142857 L13.7142857,21.4285714 L19.2857143,33.4285714 C19.7142857,33 20.1428571,32.5714286 20.5714286,32.0571429 L14.6571429,19.3714286 Z" id="Path" fill="#37474F"></path>
                <path d="M4.62857143,12.7714286 L3.85714286,11.2285714 C3.85714286,11.2285714 7.11428571,9.6 6.77142857,6.94285714 L6.6,5.65714286 L7.8,6 C11.2285714,6.85714286 12.8571429,4.71428571 12.8571429,4.62857143 L14.2285714,5.65714286 C14.1428571,5.74285714 12.2571429,8.4 8.4,7.88571429 C8.22857143,11.0571429 4.8,12.6857143 4.62857143,12.7714286 Z" id="Path" fill="#37474F"></path>
                <path d="M22.8,12.7714286 C22.6285714,12.6857143 19.2,11.0571429 18.8571429,7.88571429 C15,8.31428571 13.1142857,5.74285714 13.0285714,5.65714286 L14.4,4.62857143 C14.4857143,4.71428571 16.1142857,6.85714286 19.4571429,6 L20.6571429,5.65714286 L20.5714286,6.94285714 C20.2285714,9.6 23.4857143,11.2285714 23.4857143,11.2285714 L22.8,12.7714286 Z" id="Path" fill="#37474F"></path>
                <path d="M14.5714286,35.9142857 C14.3142857,35.9142857 13.9714286,36 13.7142857,36 C13.4571429,36 13.1142857,36 12.8571429,35.9142857 L12.8571429,0 C13.1142857,0 13.4571429,0 13.7142857,0 C13.9714286,0 14.3142857,0 14.5714286,0 L14.5714286,35.9142857 Z" id="Path" fill="#37474F"></path>
                <path d="M12.8571429,32.8285714 C12.8571429,32.8285714 11.7428571,29.4857143 9.6,30 L9.25714286,28.2857143 C12.2571429,27.6857143 13.9714286,30.6 14.5714286,32.3142857 L12.8571429,32.8285714 Z" id="Path" fill="#37474F"></path>
                <path d="M14.5714286,32.8285714 L12.8571429,32.3142857 C13.3714286,30.6857143 15.1714286,27.6857143 18.1714286,28.2857143 L17.8285714,30 C15.6,29.4857143 14.5714286,32.8285714 14.5714286,32.8285714 Z" id="Path" fill="#37474F"></path>
                <path d="M16.2857143,19.7142857 C16.2857143,19.7142857 23.7428571,15.4285714 24.2571429,11.1428571 C25.1142857,13.8 25.7142857,18.6857143 20.5714286,24 C16.6285714,21.6 16.2857143,19.7142857 16.2857143,19.7142857 Z M6.85714286,24 C1.71428571,18.6857143 2.31428571,13.8 3.17142857,11.1428571 C3.77142857,15.4285714 11.1428571,19.7142857 11.1428571,19.7142857 C11.1428571,19.7142857 10.8,21.6 6.85714286,24 Z" id="Shape" fill="#FFFFFF"></path>
            </g>
        </g>
    </g>
</svg>